<?xml version="1.0" encoding="UTF-8" standalone="no"?><!DOCTYPE svg PUBLIC "-//W3C//DTD SVG 1.1//EN" "http://www.w3.org/Graphics/SVG/1.1/DTD/svg11.dtd"><svg width="100%" height="100%" viewBox="0 0 2134 2134" version="1.1" xmlns="http://www.w3.org/2000/svg" xmlns:xlink="http://www.w3.org/1999/xlink" xml:space="preserve" xmlns:serif="http://www.serif.com/" style="fill-rule:evenodd;clip-rule:evenodd;stroke-linecap:round;stroke-linejoin:round;stroke-miterlimit:1.5;"><path d="M2074.657,562.672l0,1007.99c0,278.162 -225.833,503.995 -503.995,503.995l-1007.99,0c-278.162,0 -503.995,-225.833 -503.995,-503.995l0,-1007.99c0,-278.162 225.833,-503.995 503.995,-503.995l1007.99,0c278.162,0 503.995,225.833 503.995,503.995Z" style="fill:#fff;"/><path d="M1980.368,609.816l0,913.701c0,252.143 -204.708,456.851 -456.851,456.851l-913.701,0c-252.143,0 -456.851,-204.708 -456.851,-456.851l0,-913.701c0,-252.143 204.708,-456.851 456.851,-456.851l913.701,0c252.143,0 456.851,204.708 456.851,456.851Z"/><path d="M841.487,599.652l-258.49,150.564l-1.332,313.734l261.155,140.623l253.161,-140.623l1.332,-313.734l-255.826,-150.564Z" style="fill:#fff;stroke:#000;stroke-width:4.17px;"/><path d="M632.797,759.852l206.691,-120.067l207.405,116.656l-207.405,117.339l-206.691,-113.928Z" style="stroke:#000;stroke-width:4.17px;"/><path d="M612.331,790.551l205.343,111.561l2.047,258.874l-207.389,-115.292l0,-255.143Z" style="stroke:#000;stroke-width:4.17px;"/><path d="M856.559,902.112l203.676,-111.561l0,252.415l-202.312,118.021l-1.364,-258.874Z" style="stroke:#000;stroke-width:4.17px;"/><path d="M1190.582,1533.682l206.526,-362.42l201.196,362.42l-407.722,0Z" style="fill:#fff;stroke:#000;stroke-width:4.17px;"/><path d="M1194.279,750.216l343.799,0l0,125.248l-230.432,0l0,79.945l195.928,0l0,108.54l-198.393,0l0,124.634l-56.068,60.625l-58.532,0l3.697,-498.993Z" style="fill:#fff;"/><path d="M693.953,1531.017l-98.31,0l0,-409.054l238.753,195.866l232.271,-169.89l0,385.742l-91.828,0l-3.241,-185.207l-138.282,114.588l-138.282,-118.586l-1.08,186.54Z" style="fill:#fff;stroke:#000;stroke-width:4.17px;"/></svg>